<?xml version="1.0" encoding="UTF-8" standalone="yes"?>
<!-- Created with qrencode 3.4.4 (http://fukuchi.org/works/qrencode/index.html.en) -->
<svg width="8.26cm" height="8.26cm" viewBox="0 0 39 39" preserveAspectRatio="none" version="1.1" xmlns="http://www.w3.org/2000/svg">
	<g id="QRcode">
		<rect x="0" y="0" width="39" height="39" fill="#ffffff" />
		<g id="Pattern">
			<rect x="1" y="1" width="1" height="1" fill="#000000" />
			<rect x="2" y="1" width="1" height="1" fill="#000000" />
			<rect x="3" y="1" width="1" height="1" fill="#000000" />
			<rect x="4" y="1" width="1" height="1" fill="#000000" />
			<rect x="5" y="1" width="1" height="1" fill="#000000" />
			<rect x="6" y="1" width="1" height="1" fill="#000000" />
			<rect x="7" y="1" width="1" height="1" fill="#000000" />
			<rect x="12" y="1" width="1" height="1" fill="#000000" />
			<rect x="14" y="1" width="1" height="1" fill="#000000" />
			<rect x="18" y="1" width="1" height="1" fill="#000000" />
			<rect x="21" y="1" width="1" height="1" fill="#000000" />
			<rect x="23" y="1" width="1" height="1" fill="#000000" />
			<rect x="26" y="1" width="1" height="1" fill="#000000" />
			<rect x="29" y="1" width="1" height="1" fill="#000000" />
			<rect x="31" y="1" width="1" height="1" fill="#000000" />
			<rect x="32" y="1" width="1" height="1" fill="#000000" />
			<rect x="33" y="1" width="1" height="1" fill="#000000" />
			<rect x="34" y="1" width="1" height="1" fill="#000000" />
			<rect x="35" y="1" width="1" height="1" fill="#000000" />
			<rect x="36" y="1" width="1" height="1" fill="#000000" />
			<rect x="37" y="1" width="1" height="1" fill="#000000" />
			<rect x="1" y="2" width="1" height="1" fill="#000000" />
			<rect x="7" y="2" width="1" height="1" fill="#000000" />
			<rect x="10" y="2" width="1" height="1" fill="#000000" />
			<rect x="11" y="2" width="1" height="1" fill="#000000" />
			<rect x="13" y="2" width="1" height="1" fill="#000000" />
			<rect x="16" y="2" width="1" height="1" fill="#000000" />
			<rect x="17" y="2" width="1" height="1" fill="#000000" />
			<rect x="18" y="2" width="1" height="1" fill="#000000" />
			<rect x="19" y="2" width="1" height="1" fill="#000000" />
			<rect x="20" y="2" width="1" height="1" fill="#000000" />
			<rect x="21" y="2" width="1" height="1" fill="#000000" />
			<rect x="22" y="2" width="1" height="1" fill="#000000" />
			<rect x="23" y="2" width="1" height="1" fill="#000000" />
			<rect x="24" y="2" width="1" height="1" fill="#000000" />
			<rect x="25" y="2" width="1" height="1" fill="#000000" />
			<rect x="29" y="2" width="1" height="1" fill="#000000" />
			<rect x="31" y="2" width="1" height="1" fill="#000000" />
			<rect x="37" y="2" width="1" height="1" fill="#000000" />
			<rect x="1" y="3" width="1" height="1" fill="#000000" />
			<rect x="3" y="3" width="1" height="1" fill="#000000" />
			<rect x="4" y="3" width="1" height="1" fill="#000000" />
			<rect x="5" y="3" width="1" height="1" fill="#000000" />
			<rect x="7" y="3" width="1" height="1" fill="#000000" />
			<rect x="9" y="3" width="1" height="1" fill="#000000" />
			<rect x="10" y="3" width="1" height="1" fill="#000000" />
			<rect x="11" y="3" width="1" height="1" fill="#000000" />
			<rect x="13" y="3" width="1" height="1" fill="#000000" />
			<rect x="15" y="3" width="1" height="1" fill="#000000" />
			<rect x="16" y="3" width="1" height="1" fill="#000000" />
			<rect x="20" y="3" width="1" height="1" fill="#000000" />
			<rect x="21" y="3" width="1" height="1" fill="#000000" />
			<rect x="24" y="3" width="1" height="1" fill="#000000" />
			<rect x="25" y="3" width="1" height="1" fill="#000000" />
			<rect x="26" y="3" width="1" height="1" fill="#000000" />
			<rect x="27" y="3" width="1" height="1" fill="#000000" />
			<rect x="29" y="3" width="1" height="1" fill="#000000" />
			<rect x="31" y="3" width="1" height="1" fill="#000000" />
			<rect x="33" y="3" width="1" height="1" fill="#000000" />
			<rect x="34" y="3" width="1" height="1" fill="#000000" />
			<rect x="35" y="3" width="1" height="1" fill="#000000" />
			<rect x="37" y="3" width="1" height="1" fill="#000000" />
			<rect x="1" y="4" width="1" height="1" fill="#000000" />
			<rect x="3" y="4" width="1" height="1" fill="#000000" />
			<rect x="4" y="4" width="1" height="1" fill="#000000" />
			<rect x="5" y="4" width="1" height="1" fill="#000000" />
			<rect x="7" y="4" width="1" height="1" fill="#000000" />
			<rect x="9" y="4" width="1" height="1" fill="#000000" />
			<rect x="11" y="4" width="1" height="1" fill="#000000" />
			<rect x="12" y="4" width="1" height="1" fill="#000000" />
			<rect x="13" y="4" width="1" height="1" fill="#000000" />
			<rect x="15" y="4" width="1" height="1" fill="#000000" />
			<rect x="17" y="4" width="1" height="1" fill="#000000" />
			<rect x="19" y="4" width="1" height="1" fill="#000000" />
			<rect x="21" y="4" width="1" height="1" fill="#000000" />
			<rect x="25" y="4" width="1" height="1" fill="#000000" />
			<rect x="26" y="4" width="1" height="1" fill="#000000" />
			<rect x="27" y="4" width="1" height="1" fill="#000000" />
			<rect x="28" y="4" width="1" height="1" fill="#000000" />
			<rect x="31" y="4" width="1" height="1" fill="#000000" />
			<rect x="33" y="4" width="1" height="1" fill="#000000" />
			<rect x="34" y="4" width="1" height="1" fill="#000000" />
			<rect x="35" y="4" width="1" height="1" fill="#000000" />
			<rect x="37" y="4" width="1" height="1" fill="#000000" />
			<rect x="1" y="5" width="1" height="1" fill="#000000" />
			<rect x="3" y="5" width="1" height="1" fill="#000000" />
			<rect x="4" y="5" width="1" height="1" fill="#000000" />
			<rect x="5" y="5" width="1" height="1" fill="#000000" />
			<rect x="7" y="5" width="1" height="1" fill="#000000" />
			<rect x="10" y="5" width="1" height="1" fill="#000000" />
			<rect x="13" y="5" width="1" height="1" fill="#000000" />
			<rect x="17" y="5" width="1" height="1" fill="#000000" />
			<rect x="18" y="5" width="1" height="1" fill="#000000" />
			<rect x="19" y="5" width="1" height="1" fill="#000000" />
			<rect x="21" y="5" width="1" height="1" fill="#000000" />
			<rect x="22" y="5" width="1" height="1" fill="#000000" />
			<rect x="24" y="5" width="1" height="1" fill="#000000" />
			<rect x="31" y="5" width="1" height="1" fill="#000000" />
			<rect x="33" y="5" width="1" height="1" fill="#000000" />
			<rect x="34" y="5" width="1" height="1" fill="#000000" />
			<rect x="35" y="5" width="1" height="1" fill="#000000" />
			<rect x="37" y="5" width="1" height="1" fill="#000000" />
			<rect x="1" y="6" width="1" height="1" fill="#000000" />
			<rect x="7" y="6" width="1" height="1" fill="#000000" />
			<rect x="11" y="6" width="1" height="1" fill="#000000" />
			<rect x="14" y="6" width="1" height="1" fill="#000000" />
			<rect x="15" y="6" width="1" height="1" fill="#000000" />
			<rect x="16" y="6" width="1" height="1" fill="#000000" />
			<rect x="17" y="6" width="1" height="1" fill="#000000" />
			<rect x="18" y="6" width="1" height="1" fill="#000000" />
			<rect x="19" y="6" width="1" height="1" fill="#000000" />
			<rect x="20" y="6" width="1" height="1" fill="#000000" />
			<rect x="23" y="6" width="1" height="1" fill="#000000" />
			<rect x="24" y="6" width="1" height="1" fill="#000000" />
			<rect x="25" y="6" width="1" height="1" fill="#000000" />
			<rect x="26" y="6" width="1" height="1" fill="#000000" />
			<rect x="29" y="6" width="1" height="1" fill="#000000" />
			<rect x="31" y="6" width="1" height="1" fill="#000000" />
			<rect x="37" y="6" width="1" height="1" fill="#000000" />
			<rect x="1" y="7" width="1" height="1" fill="#000000" />
			<rect x="2" y="7" width="1" height="1" fill="#000000" />
			<rect x="3" y="7" width="1" height="1" fill="#000000" />
			<rect x="4" y="7" width="1" height="1" fill="#000000" />
			<rect x="5" y="7" width="1" height="1" fill="#000000" />
			<rect x="6" y="7" width="1" height="1" fill="#000000" />
			<rect x="7" y="7" width="1" height="1" fill="#000000" />
			<rect x="9" y="7" width="1" height="1" fill="#000000" />
			<rect x="11" y="7" width="1" height="1" fill="#000000" />
			<rect x="13" y="7" width="1" height="1" fill="#000000" />
			<rect x="15" y="7" width="1" height="1" fill="#000000" />
			<rect x="17" y="7" width="1" height="1" fill="#000000" />
			<rect x="19" y="7" width="1" height="1" fill="#000000" />
			<rect x="21" y="7" width="1" height="1" fill="#000000" />
			<rect x="23" y="7" width="1" height="1" fill="#000000" />
			<rect x="25" y="7" width="1" height="1" fill="#000000" />
			<rect x="27" y="7" width="1" height="1" fill="#000000" />
			<rect x="29" y="7" width="1" height="1" fill="#000000" />
			<rect x="31" y="7" width="1" height="1" fill="#000000" />
			<rect x="32" y="7" width="1" height="1" fill="#000000" />
			<rect x="33" y="7" width="1" height="1" fill="#000000" />
			<rect x="34" y="7" width="1" height="1" fill="#000000" />
			<rect x="35" y="7" width="1" height="1" fill="#000000" />
			<rect x="36" y="7" width="1" height="1" fill="#000000" />
			<rect x="37" y="7" width="1" height="1" fill="#000000" />
			<rect x="13" y="8" width="1" height="1" fill="#000000" />
			<rect x="16" y="8" width="1" height="1" fill="#000000" />
			<rect x="18" y="8" width="1" height="1" fill="#000000" />
			<rect x="19" y="8" width="1" height="1" fill="#000000" />
			<rect x="21" y="8" width="1" height="1" fill="#000000" />
			<rect x="22" y="8" width="1" height="1" fill="#000000" />
			<rect x="23" y="8" width="1" height="1" fill="#000000" />
			<rect x="24" y="8" width="1" height="1" fill="#000000" />
			<rect x="26" y="8" width="1" height="1" fill="#000000" />
			<rect x="28" y="8" width="1" height="1" fill="#000000" />
			<rect x="29" y="8" width="1" height="1" fill="#000000" />
			<rect x="4" y="9" width="1" height="1" fill="#000000" />
			<rect x="5" y="9" width="1" height="1" fill="#000000" />
			<rect x="7" y="9" width="1" height="1" fill="#000000" />
			<rect x="8" y="9" width="1" height="1" fill="#000000" />
			<rect x="11" y="9" width="1" height="1" fill="#000000" />
			<rect x="12" y="9" width="1" height="1" fill="#000000" />
			<rect x="15" y="9" width="1" height="1" fill="#000000" />
			<rect x="22" y="9" width="1" height="1" fill="#000000" />
			<rect x="23" y="9" width="1" height="1" fill="#000000" />
			<rect x="24" y="9" width="1" height="1" fill="#000000" />
			<rect x="27" y="9" width="1" height="1" fill="#000000" />
			<rect x="34" y="9" width="1" height="1" fill="#000000" />
			<rect x="35" y="9" width="1" height="1" fill="#000000" />
			<rect x="4" y="10" width="1" height="1" fill="#000000" />
			<rect x="5" y="10" width="1" height="1" fill="#000000" />
			<rect x="6" y="10" width="1" height="1" fill="#000000" />
			<rect x="10" y="10" width="1" height="1" fill="#000000" />
			<rect x="11" y="10" width="1" height="1" fill="#000000" />
			<rect x="12" y="10" width="1" height="1" fill="#000000" />
			<rect x="14" y="10" width="1" height="1" fill="#000000" />
			<rect x="17" y="10" width="1" height="1" fill="#000000" />
			<rect x="18" y="10" width="1" height="1" fill="#000000" />
			<rect x="24" y="10" width="1" height="1" fill="#000000" />
			<rect x="26" y="10" width="1" height="1" fill="#000000" />
			<rect x="27" y="10" width="1" height="1" fill="#000000" />
			<rect x="32" y="10" width="1" height="1" fill="#000000" />
			<rect x="33" y="10" width="1" height="1" fill="#000000" />
			<rect x="34" y="10" width="1" height="1" fill="#000000" />
			<rect x="35" y="10" width="1" height="1" fill="#000000" />
			<rect x="36" y="10" width="1" height="1" fill="#000000" />
			<rect x="1" y="11" width="1" height="1" fill="#000000" />
			<rect x="2" y="11" width="1" height="1" fill="#000000" />
			<rect x="3" y="11" width="1" height="1" fill="#000000" />
			<rect x="4" y="11" width="1" height="1" fill="#000000" />
			<rect x="6" y="11" width="1" height="1" fill="#000000" />
			<rect x="7" y="11" width="1" height="1" fill="#000000" />
			<rect x="9" y="11" width="1" height="1" fill="#000000" />
			<rect x="11" y="11" width="1" height="1" fill="#000000" />
			<rect x="12" y="11" width="1" height="1" fill="#000000" />
			<rect x="13" y="11" width="1" height="1" fill="#000000" />
			<rect x="14" y="11" width="1" height="1" fill="#000000" />
			<rect x="16" y="11" width="1" height="1" fill="#000000" />
			<rect x="17" y="11" width="1" height="1" fill="#000000" />
			<rect x="19" y="11" width="1" height="1" fill="#000000" />
			<rect x="20" y="11" width="1" height="1" fill="#000000" />
			<rect x="24" y="11" width="1" height="1" fill="#000000" />
			<rect x="26" y="11" width="1" height="1" fill="#000000" />
			<rect x="27" y="11" width="1" height="1" fill="#000000" />
			<rect x="28" y="11" width="1" height="1" fill="#000000" />
			<rect x="30" y="11" width="1" height="1" fill="#000000" />
			<rect x="31" y="11" width="1" height="1" fill="#000000" />
			<rect x="32" y="11" width="1" height="1" fill="#000000" />
			<rect x="33" y="11" width="1" height="1" fill="#000000" />
			<rect x="34" y="11" width="1" height="1" fill="#000000" />
			<rect x="35" y="11" width="1" height="1" fill="#000000" />
			<rect x="37" y="11" width="1" height="1" fill="#000000" />
			<rect x="1" y="12" width="1" height="1" fill="#000000" />
			<rect x="2" y="12" width="1" height="1" fill="#000000" />
			<rect x="3" y="12" width="1" height="1" fill="#000000" />
			<rect x="4" y="12" width="1" height="1" fill="#000000" />
			<rect x="11" y="12" width="1" height="1" fill="#000000" />
			<rect x="12" y="12" width="1" height="1" fill="#000000" />
			<rect x="13" y="12" width="1" height="1" fill="#000000" />
			<rect x="15" y="12" width="1" height="1" fill="#000000" />
			<rect x="18" y="12" width="1" height="1" fill="#000000" />
			<rect x="19" y="12" width="1" height="1" fill="#000000" />
			<rect x="20" y="12" width="1" height="1" fill="#000000" />
			<rect x="21" y="12" width="1" height="1" fill="#000000" />
			<rect x="22" y="12" width="1" height="1" fill="#000000" />
			<rect x="23" y="12" width="1" height="1" fill="#000000" />
			<rect x="24" y="12" width="1" height="1" fill="#000000" />
			<rect x="28" y="12" width="1" height="1" fill="#000000" />
			<rect x="29" y="12" width="1" height="1" fill="#000000" />
			<rect x="32" y="12" width="1" height="1" fill="#000000" />
			<rect x="34" y="12" width="1" height="1" fill="#000000" />
			<rect x="35" y="12" width="1" height="1" fill="#000000" />
			<rect x="36" y="12" width="1" height="1" fill="#000000" />
			<rect x="1" y="13" width="1" height="1" fill="#000000" />
			<rect x="2" y="13" width="1" height="1" fill="#000000" />
			<rect x="3" y="13" width="1" height="1" fill="#000000" />
			<rect x="6" y="13" width="1" height="1" fill="#000000" />
			<rect x="7" y="13" width="1" height="1" fill="#000000" />
			<rect x="9" y="13" width="1" height="1" fill="#000000" />
			<rect x="10" y="13" width="1" height="1" fill="#000000" />
			<rect x="11" y="13" width="1" height="1" fill="#000000" />
			<rect x="12" y="13" width="1" height="1" fill="#000000" />
			<rect x="13" y="13" width="1" height="1" fill="#000000" />
			<rect x="16" y="13" width="1" height="1" fill="#000000" />
			<rect x="17" y="13" width="1" height="1" fill="#000000" />
			<rect x="18" y="13" width="1" height="1" fill="#000000" />
			<rect x="22" y="13" width="1" height="1" fill="#000000" />
			<rect x="23" y="13" width="1" height="1" fill="#000000" />
			<rect x="24" y="13" width="1" height="1" fill="#000000" />
			<rect x="25" y="13" width="1" height="1" fill="#000000" />
			<rect x="27" y="13" width="1" height="1" fill="#000000" />
			<rect x="28" y="13" width="1" height="1" fill="#000000" />
			<rect x="29" y="13" width="1" height="1" fill="#000000" />
			<rect x="31" y="13" width="1" height="1" fill="#000000" />
			<rect x="34" y="13" width="1" height="1" fill="#000000" />
			<rect x="37" y="13" width="1" height="1" fill="#000000" />
			<rect x="3" y="14" width="1" height="1" fill="#000000" />
			<rect x="6" y="14" width="1" height="1" fill="#000000" />
			<rect x="10" y="14" width="1" height="1" fill="#000000" />
			<rect x="11" y="14" width="1" height="1" fill="#000000" />
			<rect x="12" y="14" width="1" height="1" fill="#000000" />
			<rect x="15" y="14" width="1" height="1" fill="#000000" />
			<rect x="16" y="14" width="1" height="1" fill="#000000" />
			<rect x="19" y="14" width="1" height="1" fill="#000000" />
			<rect x="23" y="14" width="1" height="1" fill="#000000" />
			<rect x="25" y="14" width="1" height="1" fill="#000000" />
			<rect x="26" y="14" width="1" height="1" fill="#000000" />
			<rect x="28" y="14" width="1" height="1" fill="#000000" />
			<rect x="29" y="14" width="1" height="1" fill="#000000" />
			<rect x="32" y="14" width="1" height="1" fill="#000000" />
			<rect x="33" y="14" width="1" height="1" fill="#000000" />
			<rect x="36" y="14" width="1" height="1" fill="#000000" />
			<rect x="37" y="14" width="1" height="1" fill="#000000" />
			<rect x="3" y="15" width="1" height="1" fill="#000000" />
			<rect x="7" y="15" width="1" height="1" fill="#000000" />
			<rect x="9" y="15" width="1" height="1" fill="#000000" />
			<rect x="11" y="15" width="1" height="1" fill="#000000" />
			<rect x="14" y="15" width="1" height="1" fill="#000000" />
			<rect x="15" y="15" width="1" height="1" fill="#000000" />
			<rect x="17" y="15" width="1" height="1" fill="#000000" />
			<rect x="21" y="15" width="1" height="1" fill="#000000" />
			<rect x="22" y="15" width="1" height="1" fill="#000000" />
			<rect x="24" y="15" width="1" height="1" fill="#000000" />
			<rect x="27" y="15" width="1" height="1" fill="#000000" />
			<rect x="28" y="15" width="1" height="1" fill="#000000" />
			<rect x="30" y="15" width="1" height="1" fill="#000000" />
			<rect x="31" y="15" width="1" height="1" fill="#000000" />
			<rect x="33" y="15" width="1" height="1" fill="#000000" />
			<rect x="34" y="15" width="1" height="1" fill="#000000" />
			<rect x="36" y="15" width="1" height="1" fill="#000000" />
			<rect x="37" y="15" width="1" height="1" fill="#000000" />
			<rect x="2" y="16" width="1" height="1" fill="#000000" />
			<rect x="5" y="16" width="1" height="1" fill="#000000" />
			<rect x="8" y="16" width="1" height="1" fill="#000000" />
			<rect x="10" y="16" width="1" height="1" fill="#000000" />
			<rect x="16" y="16" width="1" height="1" fill="#000000" />
			<rect x="17" y="16" width="1" height="1" fill="#000000" />
			<rect x="18" y="16" width="1" height="1" fill="#000000" />
			<rect x="19" y="16" width="1" height="1" fill="#000000" />
			<rect x="20" y="16" width="1" height="1" fill="#000000" />
			<rect x="21" y="16" width="1" height="1" fill="#000000" />
			<rect x="25" y="16" width="1" height="1" fill="#000000" />
			<rect x="30" y="16" width="1" height="1" fill="#000000" />
			<rect x="31" y="16" width="1" height="1" fill="#000000" />
			<rect x="33" y="16" width="1" height="1" fill="#000000" />
			<rect x="34" y="16" width="1" height="1" fill="#000000" />
			<rect x="35" y="16" width="1" height="1" fill="#000000" />
			<rect x="1" y="17" width="1" height="1" fill="#000000" />
			<rect x="2" y="17" width="1" height="1" fill="#000000" />
			<rect x="4" y="17" width="1" height="1" fill="#000000" />
			<rect x="6" y="17" width="1" height="1" fill="#000000" />
			<rect x="7" y="17" width="1" height="1" fill="#000000" />
			<rect x="8" y="17" width="1" height="1" fill="#000000" />
			<rect x="11" y="17" width="1" height="1" fill="#000000" />
			<rect x="12" y="17" width="1" height="1" fill="#000000" />
			<rect x="17" y="17" width="1" height="1" fill="#000000" />
			<rect x="18" y="17" width="1" height="1" fill="#000000" />
			<rect x="20" y="17" width="1" height="1" fill="#000000" />
			<rect x="21" y="17" width="1" height="1" fill="#000000" />
			<rect x="22" y="17" width="1" height="1" fill="#000000" />
			<rect x="23" y="17" width="1" height="1" fill="#000000" />
			<rect x="25" y="17" width="1" height="1" fill="#000000" />
			<rect x="28" y="17" width="1" height="1" fill="#000000" />
			<rect x="31" y="17" width="1" height="1" fill="#000000" />
			<rect x="32" y="17" width="1" height="1" fill="#000000" />
			<rect x="33" y="17" width="1" height="1" fill="#000000" />
			<rect x="34" y="17" width="1" height="1" fill="#000000" />
			<rect x="35" y="17" width="1" height="1" fill="#000000" />
			<rect x="37" y="17" width="1" height="1" fill="#000000" />
			<rect x="3" y="18" width="1" height="1" fill="#000000" />
			<rect x="4" y="18" width="1" height="1" fill="#000000" />
			<rect x="5" y="18" width="1" height="1" fill="#000000" />
			<rect x="6" y="18" width="1" height="1" fill="#000000" />
			<rect x="8" y="18" width="1" height="1" fill="#000000" />
			<rect x="9" y="18" width="1" height="1" fill="#000000" />
			<rect x="11" y="18" width="1" height="1" fill="#000000" />
			<rect x="13" y="18" width="1" height="1" fill="#000000" />
			<rect x="14" y="18" width="1" height="1" fill="#000000" />
			<rect x="16" y="18" width="1" height="1" fill="#000000" />
			<rect x="18" y="18" width="1" height="1" fill="#000000" />
			<rect x="19" y="18" width="1" height="1" fill="#000000" />
			<rect x="21" y="18" width="1" height="1" fill="#000000" />
			<rect x="23" y="18" width="1" height="1" fill="#000000" />
			<rect x="24" y="18" width="1" height="1" fill="#000000" />
			<rect x="25" y="18" width="1" height="1" fill="#000000" />
			<rect x="27" y="18" width="1" height="1" fill="#000000" />
			<rect x="28" y="18" width="1" height="1" fill="#000000" />
			<rect x="30" y="18" width="1" height="1" fill="#000000" />
			<rect x="31" y="18" width="1" height="1" fill="#000000" />
			<rect x="32" y="18" width="1" height="1" fill="#000000" />
			<rect x="34" y="18" width="1" height="1" fill="#000000" />
			<rect x="35" y="18" width="1" height="1" fill="#000000" />
			<rect x="36" y="18" width="1" height="1" fill="#000000" />
			<rect x="2" y="19" width="1" height="1" fill="#000000" />
			<rect x="3" y="19" width="1" height="1" fill="#000000" />
			<rect x="5" y="19" width="1" height="1" fill="#000000" />
			<rect x="6" y="19" width="1" height="1" fill="#000000" />
			<rect x="7" y="19" width="1" height="1" fill="#000000" />
			<rect x="10" y="19" width="1" height="1" fill="#000000" />
			<rect x="13" y="19" width="1" height="1" fill="#000000" />
			<rect x="16" y="19" width="1" height="1" fill="#000000" />
			<rect x="19" y="19" width="1" height="1" fill="#000000" />
			<rect x="20" y="19" width="1" height="1" fill="#000000" />
			<rect x="22" y="19" width="1" height="1" fill="#000000" />
			<rect x="25" y="19" width="1" height="1" fill="#000000" />
			<rect x="28" y="19" width="1" height="1" fill="#000000" />
			<rect x="31" y="19" width="1" height="1" fill="#000000" />
			<rect x="32" y="19" width="1" height="1" fill="#000000" />
			<rect x="33" y="19" width="1" height="1" fill="#000000" />
			<rect x="35" y="19" width="1" height="1" fill="#000000" />
			<rect x="37" y="19" width="1" height="1" fill="#000000" />
			<rect x="3" y="20" width="1" height="1" fill="#000000" />
			<rect x="4" y="20" width="1" height="1" fill="#000000" />
			<rect x="5" y="20" width="1" height="1" fill="#000000" />
			<rect x="6" y="20" width="1" height="1" fill="#000000" />
			<rect x="8" y="20" width="1" height="1" fill="#000000" />
			<rect x="9" y="20" width="1" height="1" fill="#000000" />
			<rect x="10" y="20" width="1" height="1" fill="#000000" />
			<rect x="12" y="20" width="1" height="1" fill="#000000" />
			<rect x="13" y="20" width="1" height="1" fill="#000000" />
			<rect x="14" y="20" width="1" height="1" fill="#000000" />
			<rect x="15" y="20" width="1" height="1" fill="#000000" />
			<rect x="16" y="20" width="1" height="1" fill="#000000" />
			<rect x="20" y="20" width="1" height="1" fill="#000000" />
			<rect x="23" y="20" width="1" height="1" fill="#000000" />
			<rect x="25" y="20" width="1" height="1" fill="#000000" />
			<rect x="26" y="20" width="1" height="1" fill="#000000" />
			<rect x="28" y="20" width="1" height="1" fill="#000000" />
			<rect x="32" y="20" width="1" height="1" fill="#000000" />
			<rect x="34" y="20" width="1" height="1" fill="#000000" />
			<rect x="2" y="21" width="1" height="1" fill="#000000" />
			<rect x="4" y="21" width="1" height="1" fill="#000000" />
			<rect x="6" y="21" width="1" height="1" fill="#000000" />
			<rect x="7" y="21" width="1" height="1" fill="#000000" />
			<rect x="8" y="21" width="1" height="1" fill="#000000" />
			<rect x="11" y="21" width="1" height="1" fill="#000000" />
			<rect x="14" y="21" width="1" height="1" fill="#000000" />
			<rect x="18" y="21" width="1" height="1" fill="#000000" />
			<rect x="19" y="21" width="1" height="1" fill="#000000" />
			<rect x="22" y="21" width="1" height="1" fill="#000000" />
			<rect x="23" y="21" width="1" height="1" fill="#000000" />
			<rect x="26" y="21" width="1" height="1" fill="#000000" />
			<rect x="27" y="21" width="1" height="1" fill="#000000" />
			<rect x="28" y="21" width="1" height="1" fill="#000000" />
			<rect x="29" y="21" width="1" height="1" fill="#000000" />
			<rect x="30" y="21" width="1" height="1" fill="#000000" />
			<rect x="31" y="21" width="1" height="1" fill="#000000" />
			<rect x="32" y="21" width="1" height="1" fill="#000000" />
			<rect x="33" y="21" width="1" height="1" fill="#000000" />
			<rect x="34" y="21" width="1" height="1" fill="#000000" />
			<rect x="2" y="22" width="1" height="1" fill="#000000" />
			<rect x="3" y="22" width="1" height="1" fill="#000000" />
			<rect x="4" y="22" width="1" height="1" fill="#000000" />
			<rect x="9" y="22" width="1" height="1" fill="#000000" />
			<rect x="10" y="22" width="1" height="1" fill="#000000" />
			<rect x="11" y="22" width="1" height="1" fill="#000000" />
			<rect x="13" y="22" width="1" height="1" fill="#000000" />
			<rect x="14" y="22" width="1" height="1" fill="#000000" />
			<rect x="15" y="22" width="1" height="1" fill="#000000" />
			<rect x="18" y="22" width="1" height="1" fill="#000000" />
			<rect x="20" y="22" width="1" height="1" fill="#000000" />
			<rect x="22" y="22" width="1" height="1" fill="#000000" />
			<rect x="23" y="22" width="1" height="1" fill="#000000" />
			<rect x="24" y="22" width="1" height="1" fill="#000000" />
			<rect x="25" y="22" width="1" height="1" fill="#000000" />
			<rect x="28" y="22" width="1" height="1" fill="#000000" />
			<rect x="32" y="22" width="1" height="1" fill="#000000" />
			<rect x="33" y="22" width="1" height="1" fill="#000000" />
			<rect x="34" y="22" width="1" height="1" fill="#000000" />
			<rect x="35" y="22" width="1" height="1" fill="#000000" />
			<rect x="2" y="23" width="1" height="1" fill="#000000" />
			<rect x="4" y="23" width="1" height="1" fill="#000000" />
			<rect x="5" y="23" width="1" height="1" fill="#000000" />
			<rect x="7" y="23" width="1" height="1" fill="#000000" />
			<rect x="9" y="23" width="1" height="1" fill="#000000" />
			<rect x="10" y="23" width="1" height="1" fill="#000000" />
			<rect x="13" y="23" width="1" height="1" fill="#000000" />
			<rect x="15" y="23" width="1" height="1" fill="#000000" />
			<rect x="17" y="23" width="1" height="1" fill="#000000" />
			<rect x="18" y="23" width="1" height="1" fill="#000000" />
			<rect x="21" y="23" width="1" height="1" fill="#000000" />
			<rect x="23" y="23" width="1" height="1" fill="#000000" />
			<rect x="26" y="23" width="1" height="1" fill="#000000" />
			<rect x="28" y="23" width="1" height="1" fill="#000000" />
			<rect x="29" y="23" width="1" height="1" fill="#000000" />
			<rect x="30" y="23" width="1" height="1" fill="#000000" />
			<rect x="31" y="23" width="1" height="1" fill="#000000" />
			<rect x="33" y="23" width="1" height="1" fill="#000000" />
			<rect x="34" y="23" width="1" height="1" fill="#000000" />
			<rect x="35" y="23" width="1" height="1" fill="#000000" />
			<rect x="37" y="23" width="1" height="1" fill="#000000" />
			<rect x="3" y="24" width="1" height="1" fill="#000000" />
			<rect x="6" y="24" width="1" height="1" fill="#000000" />
			<rect x="12" y="24" width="1" height="1" fill="#000000" />
			<rect x="13" y="24" width="1" height="1" fill="#000000" />
			<rect x="15" y="24" width="1" height="1" fill="#000000" />
			<rect x="18" y="24" width="1" height="1" fill="#000000" />
			<rect x="20" y="24" width="1" height="1" fill="#000000" />
			<rect x="22" y="24" width="1" height="1" fill="#000000" />
			<rect x="23" y="24" width="1" height="1" fill="#000000" />
			<rect x="24" y="24" width="1" height="1" fill="#000000" />
			<rect x="27" y="24" width="1" height="1" fill="#000000" />
			<rect x="29" y="24" width="1" height="1" fill="#000000" />
			<rect x="32" y="24" width="1" height="1" fill="#000000" />
			<rect x="34" y="24" width="1" height="1" fill="#000000" />
			<rect x="35" y="24" width="1" height="1" fill="#000000" />
			<rect x="36" y="24" width="1" height="1" fill="#000000" />
			<rect x="37" y="24" width="1" height="1" fill="#000000" />
			<rect x="1" y="25" width="1" height="1" fill="#000000" />
			<rect x="3" y="25" width="1" height="1" fill="#000000" />
			<rect x="4" y="25" width="1" height="1" fill="#000000" />
			<rect x="6" y="25" width="1" height="1" fill="#000000" />
			<rect x="7" y="25" width="1" height="1" fill="#000000" />
			<rect x="8" y="25" width="1" height="1" fill="#000000" />
			<rect x="9" y="25" width="1" height="1" fill="#000000" />
			<rect x="11" y="25" width="1" height="1" fill="#000000" />
			<rect x="15" y="25" width="1" height="1" fill="#000000" />
			<rect x="19" y="25" width="1" height="1" fill="#000000" />
			<rect x="20" y="25" width="1" height="1" fill="#000000" />
			<rect x="22" y="25" width="1" height="1" fill="#000000" />
			<rect x="26" y="25" width="1" height="1" fill="#000000" />
			<rect x="27" y="25" width="1" height="1" fill="#000000" />
			<rect x="29" y="25" width="1" height="1" fill="#000000" />
			<rect x="31" y="25" width="1" height="1" fill="#000000" />
			<rect x="32" y="25" width="1" height="1" fill="#000000" />
			<rect x="33" y="25" width="1" height="1" fill="#000000" />
			<rect x="37" y="25" width="1" height="1" fill="#000000" />
			<rect x="1" y="26" width="1" height="1" fill="#000000" />
			<rect x="2" y="26" width="1" height="1" fill="#000000" />
			<rect x="5" y="26" width="1" height="1" fill="#000000" />
			<rect x="10" y="26" width="1" height="1" fill="#000000" />
			<rect x="11" y="26" width="1" height="1" fill="#000000" />
			<rect x="13" y="26" width="1" height="1" fill="#000000" />
			<rect x="14" y="26" width="1" height="1" fill="#000000" />
			<rect x="15" y="26" width="1" height="1" fill="#000000" />
			<rect x="17" y="26" width="1" height="1" fill="#000000" />
			<rect x="18" y="26" width="1" height="1" fill="#000000" />
			<rect x="19" y="26" width="1" height="1" fill="#000000" />
			<rect x="20" y="26" width="1" height="1" fill="#000000" />
			<rect x="22" y="26" width="1" height="1" fill="#000000" />
			<rect x="25" y="26" width="1" height="1" fill="#000000" />
			<rect x="26" y="26" width="1" height="1" fill="#000000" />
			<rect x="27" y="26" width="1" height="1" fill="#000000" />
			<rect x="28" y="26" width="1" height="1" fill="#000000" />
			<rect x="29" y="26" width="1" height="1" fill="#000000" />
			<rect x="31" y="26" width="1" height="1" fill="#000000" />
			<rect x="33" y="26" width="1" height="1" fill="#000000" />
			<rect x="34" y="26" width="1" height="1" fill="#000000" />
			<rect x="37" y="26" width="1" height="1" fill="#000000" />
			<rect x="1" y="27" width="1" height="1" fill="#000000" />
			<rect x="2" y="27" width="1" height="1" fill="#000000" />
			<rect x="3" y="27" width="1" height="1" fill="#000000" />
			<rect x="5" y="27" width="1" height="1" fill="#000000" />
			<rect x="6" y="27" width="1" height="1" fill="#000000" />
			<rect x="7" y="27" width="1" height="1" fill="#000000" />
			<rect x="8" y="27" width="1" height="1" fill="#000000" />
			<rect x="9" y="27" width="1" height="1" fill="#000000" />
			<rect x="14" y="27" width="1" height="1" fill="#000000" />
			<rect x="16" y="27" width="1" height="1" fill="#000000" />
			<rect x="19" y="27" width="1" height="1" fill="#000000" />
			<rect x="20" y="27" width="1" height="1" fill="#000000" />
			<rect x="23" y="27" width="1" height="1" fill="#000000" />
			<rect x="26" y="27" width="1" height="1" fill="#000000" />
			<rect x="28" y="27" width="1" height="1" fill="#000000" />
			<rect x="29" y="27" width="1" height="1" fill="#000000" />
			<rect x="30" y="27" width="1" height="1" fill="#000000" />
			<rect x="33" y="27" width="1" height="1" fill="#000000" />
			<rect x="35" y="27" width="1" height="1" fill="#000000" />
			<rect x="36" y="27" width="1" height="1" fill="#000000" />
			<rect x="37" y="27" width="1" height="1" fill="#000000" />
			<rect x="1" y="28" width="1" height="1" fill="#000000" />
			<rect x="4" y="28" width="1" height="1" fill="#000000" />
			<rect x="6" y="28" width="1" height="1" fill="#000000" />
			<rect x="8" y="28" width="1" height="1" fill="#000000" />
			<rect x="11" y="28" width="1" height="1" fill="#000000" />
			<rect x="12" y="28" width="1" height="1" fill="#000000" />
			<rect x="13" y="28" width="1" height="1" fill="#000000" />
			<rect x="17" y="28" width="1" height="1" fill="#000000" />
			<rect x="18" y="28" width="1" height="1" fill="#000000" />
			<rect x="20" y="28" width="1" height="1" fill="#000000" />
			<rect x="25" y="28" width="1" height="1" fill="#000000" />
			<rect x="30" y="28" width="1" height="1" fill="#000000" />
			<rect x="32" y="28" width="1" height="1" fill="#000000" />
			<rect x="33" y="28" width="1" height="1" fill="#000000" />
			<rect x="34" y="28" width="1" height="1" fill="#000000" />
			<rect x="35" y="28" width="1" height="1" fill="#000000" />
			<rect x="36" y="28" width="1" height="1" fill="#000000" />
			<rect x="37" y="28" width="1" height="1" fill="#000000" />
			<rect x="1" y="29" width="1" height="1" fill="#000000" />
			<rect x="5" y="29" width="1" height="1" fill="#000000" />
			<rect x="7" y="29" width="1" height="1" fill="#000000" />
			<rect x="9" y="29" width="1" height="1" fill="#000000" />
			<rect x="11" y="29" width="1" height="1" fill="#000000" />
			<rect x="13" y="29" width="1" height="1" fill="#000000" />
			<rect x="16" y="29" width="1" height="1" fill="#000000" />
			<rect x="17" y="29" width="1" height="1" fill="#000000" />
			<rect x="20" y="29" width="1" height="1" fill="#000000" />
			<rect x="22" y="29" width="1" height="1" fill="#000000" />
			<rect x="23" y="29" width="1" height="1" fill="#000000" />
			<rect x="24" y="29" width="1" height="1" fill="#000000" />
			<rect x="25" y="29" width="1" height="1" fill="#000000" />
			<rect x="26" y="29" width="1" height="1" fill="#000000" />
			<rect x="27" y="29" width="1" height="1" fill="#000000" />
			<rect x="29" y="29" width="1" height="1" fill="#000000" />
			<rect x="30" y="29" width="1" height="1" fill="#000000" />
			<rect x="31" y="29" width="1" height="1" fill="#000000" />
			<rect x="32" y="29" width="1" height="1" fill="#000000" />
			<rect x="33" y="29" width="1" height="1" fill="#000000" />
			<rect x="34" y="29" width="1" height="1" fill="#000000" />
			<rect x="36" y="29" width="1" height="1" fill="#000000" />
			<rect x="9" y="30" width="1" height="1" fill="#000000" />
			<rect x="10" y="30" width="1" height="1" fill="#000000" />
			<rect x="12" y="30" width="1" height="1" fill="#000000" />
			<rect x="15" y="30" width="1" height="1" fill="#000000" />
			<rect x="16" y="30" width="1" height="1" fill="#000000" />
			<rect x="20" y="30" width="1" height="1" fill="#000000" />
			<rect x="21" y="30" width="1" height="1" fill="#000000" />
			<rect x="22" y="30" width="1" height="1" fill="#000000" />
			<rect x="27" y="30" width="1" height="1" fill="#000000" />
			<rect x="28" y="30" width="1" height="1" fill="#000000" />
			<rect x="29" y="30" width="1" height="1" fill="#000000" />
			<rect x="33" y="30" width="1" height="1" fill="#000000" />
			<rect x="36" y="30" width="1" height="1" fill="#000000" />
			<rect x="1" y="31" width="1" height="1" fill="#000000" />
			<rect x="2" y="31" width="1" height="1" fill="#000000" />
			<rect x="3" y="31" width="1" height="1" fill="#000000" />
			<rect x="4" y="31" width="1" height="1" fill="#000000" />
			<rect x="5" y="31" width="1" height="1" fill="#000000" />
			<rect x="6" y="31" width="1" height="1" fill="#000000" />
			<rect x="7" y="31" width="1" height="1" fill="#000000" />
			<rect x="9" y="31" width="1" height="1" fill="#000000" />
			<rect x="13" y="31" width="1" height="1" fill="#000000" />
			<rect x="15" y="31" width="1" height="1" fill="#000000" />
			<rect x="17" y="31" width="1" height="1" fill="#000000" />
			<rect x="24" y="31" width="1" height="1" fill="#000000" />
			<rect x="29" y="31" width="1" height="1" fill="#000000" />
			<rect x="31" y="31" width="1" height="1" fill="#000000" />
			<rect x="33" y="31" width="1" height="1" fill="#000000" />
			<rect x="35" y="31" width="1" height="1" fill="#000000" />
			<rect x="37" y="31" width="1" height="1" fill="#000000" />
			<rect x="1" y="32" width="1" height="1" fill="#000000" />
			<rect x="7" y="32" width="1" height="1" fill="#000000" />
			<rect x="10" y="32" width="1" height="1" fill="#000000" />
			<rect x="13" y="32" width="1" height="1" fill="#000000" />
			<rect x="17" y="32" width="1" height="1" fill="#000000" />
			<rect x="18" y="32" width="1" height="1" fill="#000000" />
			<rect x="19" y="32" width="1" height="1" fill="#000000" />
			<rect x="20" y="32" width="1" height="1" fill="#000000" />
			<rect x="22" y="32" width="1" height="1" fill="#000000" />
			<rect x="25" y="32" width="1" height="1" fill="#000000" />
			<rect x="26" y="32" width="1" height="1" fill="#000000" />
			<rect x="28" y="32" width="1" height="1" fill="#000000" />
			<rect x="29" y="32" width="1" height="1" fill="#000000" />
			<rect x="33" y="32" width="1" height="1" fill="#000000" />
			<rect x="34" y="32" width="1" height="1" fill="#000000" />
			<rect x="1" y="33" width="1" height="1" fill="#000000" />
			<rect x="3" y="33" width="1" height="1" fill="#000000" />
			<rect x="4" y="33" width="1" height="1" fill="#000000" />
			<rect x="5" y="33" width="1" height="1" fill="#000000" />
			<rect x="7" y="33" width="1" height="1" fill="#000000" />
			<rect x="9" y="33" width="1" height="1" fill="#000000" />
			<rect x="10" y="33" width="1" height="1" fill="#000000" />
			<rect x="14" y="33" width="1" height="1" fill="#000000" />
			<rect x="16" y="33" width="1" height="1" fill="#000000" />
			<rect x="17" y="33" width="1" height="1" fill="#000000" />
			<rect x="19" y="33" width="1" height="1" fill="#000000" />
			<rect x="22" y="33" width="1" height="1" fill="#000000" />
			<rect x="23" y="33" width="1" height="1" fill="#000000" />
			<rect x="25" y="33" width="1" height="1" fill="#000000" />
			<rect x="28" y="33" width="1" height="1" fill="#000000" />
			<rect x="29" y="33" width="1" height="1" fill="#000000" />
			<rect x="30" y="33" width="1" height="1" fill="#000000" />
			<rect x="31" y="33" width="1" height="1" fill="#000000" />
			<rect x="32" y="33" width="1" height="1" fill="#000000" />
			<rect x="33" y="33" width="1" height="1" fill="#000000" />
			<rect x="36" y="33" width="1" height="1" fill="#000000" />
			<rect x="37" y="33" width="1" height="1" fill="#000000" />
			<rect x="1" y="34" width="1" height="1" fill="#000000" />
			<rect x="3" y="34" width="1" height="1" fill="#000000" />
			<rect x="4" y="34" width="1" height="1" fill="#000000" />
			<rect x="5" y="34" width="1" height="1" fill="#000000" />
			<rect x="7" y="34" width="1" height="1" fill="#000000" />
			<rect x="9" y="34" width="1" height="1" fill="#000000" />
			<rect x="13" y="34" width="1" height="1" fill="#000000" />
			<rect x="15" y="34" width="1" height="1" fill="#000000" />
			<rect x="18" y="34" width="1" height="1" fill="#000000" />
			<rect x="21" y="34" width="1" height="1" fill="#000000" />
			<rect x="22" y="34" width="1" height="1" fill="#000000" />
			<rect x="23" y="34" width="1" height="1" fill="#000000" />
			<rect x="29" y="34" width="1" height="1" fill="#000000" />
			<rect x="30" y="34" width="1" height="1" fill="#000000" />
			<rect x="31" y="34" width="1" height="1" fill="#000000" />
			<rect x="34" y="34" width="1" height="1" fill="#000000" />
			<rect x="1" y="35" width="1" height="1" fill="#000000" />
			<rect x="3" y="35" width="1" height="1" fill="#000000" />
			<rect x="4" y="35" width="1" height="1" fill="#000000" />
			<rect x="5" y="35" width="1" height="1" fill="#000000" />
			<rect x="7" y="35" width="1" height="1" fill="#000000" />
			<rect x="10" y="35" width="1" height="1" fill="#000000" />
			<rect x="12" y="35" width="1" height="1" fill="#000000" />
			<rect x="15" y="35" width="1" height="1" fill="#000000" />
			<rect x="17" y="35" width="1" height="1" fill="#000000" />
			<rect x="19" y="35" width="1" height="1" fill="#000000" />
			<rect x="21" y="35" width="1" height="1" fill="#000000" />
			<rect x="25" y="35" width="1" height="1" fill="#000000" />
			<rect x="30" y="35" width="1" height="1" fill="#000000" />
			<rect x="32" y="35" width="1" height="1" fill="#000000" />
			<rect x="33" y="35" width="1" height="1" fill="#000000" />
			<rect x="34" y="35" width="1" height="1" fill="#000000" />
			<rect x="35" y="35" width="1" height="1" fill="#000000" />
			<rect x="36" y="35" width="1" height="1" fill="#000000" />
			<rect x="37" y="35" width="1" height="1" fill="#000000" />
			<rect x="1" y="36" width="1" height="1" fill="#000000" />
			<rect x="7" y="36" width="1" height="1" fill="#000000" />
			<rect x="10" y="36" width="1" height="1" fill="#000000" />
			<rect x="11" y="36" width="1" height="1" fill="#000000" />
			<rect x="14" y="36" width="1" height="1" fill="#000000" />
			<rect x="15" y="36" width="1" height="1" fill="#000000" />
			<rect x="16" y="36" width="1" height="1" fill="#000000" />
			<rect x="18" y="36" width="1" height="1" fill="#000000" />
			<rect x="19" y="36" width="1" height="1" fill="#000000" />
			<rect x="21" y="36" width="1" height="1" fill="#000000" />
			<rect x="28" y="36" width="1" height="1" fill="#000000" />
			<rect x="34" y="36" width="1" height="1" fill="#000000" />
			<rect x="35" y="36" width="1" height="1" fill="#000000" />
			<rect x="36" y="36" width="1" height="1" fill="#000000" />
			<rect x="37" y="36" width="1" height="1" fill="#000000" />
			<rect x="1" y="37" width="1" height="1" fill="#000000" />
			<rect x="2" y="37" width="1" height="1" fill="#000000" />
			<rect x="3" y="37" width="1" height="1" fill="#000000" />
			<rect x="4" y="37" width="1" height="1" fill="#000000" />
			<rect x="5" y="37" width="1" height="1" fill="#000000" />
			<rect x="6" y="37" width="1" height="1" fill="#000000" />
			<rect x="7" y="37" width="1" height="1" fill="#000000" />
			<rect x="12" y="37" width="1" height="1" fill="#000000" />
			<rect x="14" y="37" width="1" height="1" fill="#000000" />
			<rect x="18" y="37" width="1" height="1" fill="#000000" />
			<rect x="22" y="37" width="1" height="1" fill="#000000" />
			<rect x="23" y="37" width="1" height="1" fill="#000000" />
			<rect x="25" y="37" width="1" height="1" fill="#000000" />
			<rect x="26" y="37" width="1" height="1" fill="#000000" />
			<rect x="28" y="37" width="1" height="1" fill="#000000" />
			<rect x="29" y="37" width="1" height="1" fill="#000000" />
			<rect x="31" y="37" width="1" height="1" fill="#000000" />
			<rect x="32" y="37" width="1" height="1" fill="#000000" />
			<rect x="33" y="37" width="1" height="1" fill="#000000" />
			<rect x="34" y="37" width="1" height="1" fill="#000000" />
			<rect x="35" y="37" width="1" height="1" fill="#000000" />
			<rect x="37" y="37" width="1" height="1" fill="#000000" />
		</g>
	</g>
</svg>
